<svg xmlns="http://www.w3.org/2000/svg" viewBox="0 0 808 808">
  <defs>
    <style>
      .cls-1 {
        fill: #fff;
      }
    </style>
  </defs>
  <g id="Layer_2" data-name="Layer 2">
    <g id="Layer_1-2" data-name="Layer 1">
      <g>
        <path class="cls-1" d="M404,0C180.877,0,0,180.877,0,404S180.877,808,404,808,808,627.12305,808,404,627.12305,0,404,0Zm0,728C225.05975,728,80,582.94025,80,404S225.05975,80,404,80,728,225.05975,728,404,582.94025,728,404,728Z"/>
        <polygon class="cls-1" points="467 194 341 194 341 341 194 341 194 467 341 467 341 614 467 614 467 467 614 467 614 341 467 341 467 194"/>
      </g>
    </g>
  </g>
</svg>
